<svg width="21" height="21" viewBox="0 0 21 21" fill="none" xmlns="http://www.w3.org/2000/svg">
<path fill-rule="evenodd" clip-rule="evenodd" d="M4.46397 0.321504C8.3313 -0.107168 12.2341 -0.107168 16.1015 0.321504C18.2427 0.561504 19.9702 2.24775 20.2215 4.3965C20.6801 8.31856 20.6801 12.2807 20.2215 16.2028C20.0943 17.2469 19.6183 18.2174 18.8704 18.9571C18.1226 19.6967 17.1469 20.1621 16.1015 20.2778C12.2342 20.7078 8.33122 20.7078 4.46397 20.2778C3.41854 20.1621 2.44282 19.6967 1.695 18.9571C0.947182 18.2174 0.471111 17.2469 0.343971 16.2028C-0.114657 12.2811 -0.114657 8.31939 0.343971 4.39775C0.471056 3.35384 0.946946 2.38344 1.69451 1.64381C2.44208 0.904183 3.41751 0.438683 4.46272 0.322753L4.46397 0.321504ZM5.87022 5.88775C6.046 5.71219 6.28428 5.61358 6.53272 5.61358C6.78116 5.61358 7.01944 5.71219 7.19522 5.88775L10.2827 8.97525L13.3702 5.88775C13.456 5.79564 13.5595 5.72177 13.6745 5.67053C13.7895 5.61929 13.9137 5.59173 14.0396 5.58951C14.1654 5.58729 14.2905 5.61045 14.4072 5.6576C14.524 5.70475 14.63 5.77493 14.719 5.86396C14.808 5.95298 14.8782 6.05902 14.9254 6.17576C14.9725 6.29249 14.9957 6.41753 14.9935 6.54341C14.9912 6.66928 14.9637 6.79343 14.9124 6.90843C14.8612 7.02343 14.7873 7.12692 14.6952 7.21275L11.6077 10.3003L14.6952 13.3878C14.8608 13.5655 14.951 13.8005 14.9467 14.0434C14.9424 14.2863 14.844 14.518 14.6722 14.6898C14.5005 14.8615 14.2688 14.9599 14.0259 14.9642C13.783 14.9685 13.5479 14.8784 13.3702 14.7128L10.2827 11.6253L7.19522 14.7128C7.10939 14.8049 7.00589 14.8787 6.89089 14.93C6.7759 14.9812 6.65175 15.0088 6.52587 15.011C6.4 15.0132 6.27496 14.9901 6.15822 14.9429C6.04149 14.8958 5.93545 14.8256 5.84642 14.7366C5.7574 14.6475 5.68722 14.5415 5.64007 14.4248C5.59292 14.308 5.56976 14.183 5.57198 14.0571C5.5742 13.9312 5.60176 13.8071 5.653 13.6921C5.70424 13.5771 5.77811 13.4736 5.87022 13.3878L8.95772 10.3003L5.87022 7.21275C5.69466 7.03697 5.59605 6.79869 5.59605 6.55025C5.59605 6.30181 5.69466 6.06354 5.87022 5.88775Z" fill="#F8F8F8"/>
</svg>
