<svg width="21" height="21" viewBox="0 0 21 21" fill="none" xmlns="http://www.w3.org/2000/svg">
<path d="M4.5835 5.58331H3.50016C2.92553 5.58331 2.37443 5.81159 1.9681 6.21791C1.56177 6.62424 1.3335 7.17534 1.3335 7.74998V17.5C1.3335 18.0746 1.56177 18.6257 1.9681 19.032C2.37443 19.4384 2.92553 19.6666 3.50016 19.6666H13.2502C13.8248 19.6666 14.3759 19.4384 14.7822 19.032C15.1886 18.6257 15.4168 18.0746 15.4168 17.5V16.4166" stroke="#F8F8F8" stroke-width="1.5" stroke-linecap="round" stroke-linejoin="round"/>
<path d="M14.3333 3.41666L17.5833 6.66666M19.0838 5.13374C19.5104 4.70708 19.7501 4.12839 19.7501 3.52499C19.7501 2.9216 19.5104 2.34291 19.0838 1.91624C18.6571 1.48958 18.0784 1.24988 17.475 1.24988C16.8716 1.24988 16.2929 1.48958 15.8663 1.91624L6.75 11V14.25H10L19.0838 5.13374Z" stroke="#F8F8F8" stroke-width="1.5" stroke-linecap="round" stroke-linejoin="round"/>
</svg>
