<svg width="15" height="15" viewBox="0 0 15 15" fill="none" xmlns="http://www.w3.org/2000/svg">
<path d="M2.91659 2.50002H9.58325V6.58335H10.4166V2.50002C10.4166 2.27901 10.3288 2.06704 10.1725 1.91076C10.0162 1.75448 9.80427 1.66669 9.58325 1.66669H2.91659C2.69557 1.66669 2.48361 1.75448 2.32733 1.91076C2.17105 2.06704 2.08325 2.27901 2.08325 2.50002V12.5C2.08325 12.721 2.17105 12.933 2.32733 13.0893C2.48361 13.2456 2.69557 13.3334 2.91659 13.3334H9.58325C9.80427 13.3334 10.0162 13.2456 10.1725 13.0893C10.3288 12.933 10.4166 12.721 10.4166 12.5H2.91659V2.50002Z" fill="white"/>
<path d="M11.7334 7.19998C11.6537 7.13172 11.5512 7.09605 11.4463 7.1001C11.3415 7.10415 11.242 7.14763 11.1678 7.22183C11.0936 7.29604 11.0501 7.39551 11.0461 7.50038C11.042 7.60524 11.0777 7.70777 11.1459 7.78748L12.5543 9.16665H6.51261C6.40211 9.16665 6.29613 9.21055 6.21799 9.28869C6.13985 9.36683 6.09595 9.47281 6.09595 9.58332C6.09595 9.69382 6.13985 9.7998 6.21799 9.87794C6.29613 9.95608 6.40211 9.99998 6.51261 9.99998H12.5543L11.1459 11.4416C11.1023 11.479 11.0669 11.525 11.0419 11.5767C11.0169 11.6284 11.0028 11.6847 11.0006 11.742C10.9984 11.7994 11.0081 11.8566 11.029 11.9101C11.05 11.9636 11.0817 12.0121 11.1223 12.0528C11.1629 12.0934 11.2115 12.1251 11.265 12.1461C11.3184 12.167 11.3757 12.1767 11.4331 12.1745C11.4904 12.1723 11.5467 12.1582 11.5984 12.1332C11.6501 12.1082 11.6961 12.0728 11.7334 12.0292L14.1668 9.61248L11.7334 7.19998Z" fill="white"/>
</svg>
