<svg width="25" height="25" viewBox="0 0 25 25" fill="none" xmlns="http://www.w3.org/2000/svg">
<path d="M12.4998 22.9166C11.9473 22.9166 11.4174 22.6972 11.0267 22.3065C10.636 21.9158 10.4165 21.3859 10.4165 20.8333H14.5832C14.5832 21.3859 14.3637 21.9158 13.973 22.3065C13.5823 22.6972 13.0524 22.9166 12.4998 22.9166ZM20.8332 19.7916H4.1665V17.7083L6.24984 16.6666V10.9375C6.19496 9.46781 6.52685 8.00949 7.21234 6.70832C7.54967 6.11172 8.00966 5.59343 8.56197 5.18764C9.11428 4.78184 9.74636 4.49777 10.4165 4.35415V2.08332H14.2144C13.5545 2.82083 13.1449 3.74827 13.0444 4.7328C12.9439 5.71733 13.1575 6.70842 13.6547 7.56409C14.1519 8.41976 14.9072 9.09612 15.8124 9.49626C16.7175 9.8964 17.7261 9.9998 18.6936 9.79165C18.73 10.1635 18.7478 10.5489 18.7478 10.9375V16.6666L20.8311 17.7083V19.7916H20.8332ZM17.7082 8.33332C17.2978 8.33263 16.8916 8.25113 16.5127 8.09345C16.1338 7.93577 15.7897 7.70501 15.5 7.41434C15.2103 7.12368 14.9807 6.7788 14.8243 6.39939C14.6678 6.01999 14.5877 5.61349 14.5884 5.20311C14.5891 4.79273 14.6706 4.3865 14.8282 4.00762C14.9859 3.62874 15.2167 3.28463 15.5074 2.99493C15.798 2.70523 16.1429 2.47561 16.5223 2.3192C16.9017 2.16279 17.3082 2.08263 17.7186 2.08332C18.5474 2.0847 19.3417 2.41526 19.9268 3.00229C20.5118 3.58932 20.8398 4.38472 20.8384 5.21353C20.837 6.04233 20.5064 6.83663 19.9194 7.42171C19.3324 8.00678 18.537 8.3347 17.7082 8.33332Z" fill="white"/>
</svg>
