<svg width="16" height="16" viewBox="0 0 16 16" fill="none" xmlns="http://www.w3.org/2000/svg">
<path d="M15.5781 14.502L10.5059 9.42969C11.293 8.41211 11.7188 7.16797 11.7188 5.85938C11.7188 4.29297 11.1074 2.82422 10.002 1.7168C8.89648 0.609375 7.42383 0 5.85938 0C4.29492 0 2.82227 0.611328 1.7168 1.7168C0.609375 2.82227 0 4.29297 0 5.85938C0 7.42383 0.611328 8.89648 1.7168 10.002C2.82227 11.1094 4.29297 11.7188 5.85938 11.7188C7.16797 11.7188 8.41016 11.293 9.42773 10.5078L14.5 15.5781C14.5149 15.593 14.5325 15.6048 14.552 15.6129C14.5714 15.6209 14.5922 15.6251 14.6133 15.6251C14.6343 15.6251 14.6552 15.6209 14.6746 15.6129C14.694 15.6048 14.7117 15.593 14.7266 15.5781L15.5781 14.7285C15.593 14.7136 15.6048 14.696 15.6129 14.6765C15.6209 14.6571 15.6251 14.6363 15.6251 14.6152C15.6251 14.5942 15.6209 14.5734 15.6129 14.5539C15.6048 14.5345 15.593 14.5168 15.5781 14.502ZM8.95312 8.95312C8.125 9.7793 7.02734 10.2344 5.85938 10.2344C4.69141 10.2344 3.59375 9.7793 2.76562 8.95312C1.93945 8.125 1.48438 7.02734 1.48438 5.85938C1.48438 4.69141 1.93945 3.5918 2.76562 2.76562C3.59375 1.93945 4.69141 1.48438 5.85938 1.48438C7.02734 1.48438 8.12695 1.9375 8.95312 2.76562C9.7793 3.59375 10.2344 4.69141 10.2344 5.85938C10.2344 7.02734 9.7793 8.12695 8.95312 8.95312Z" fill="white"/>
</svg>
