<svg width="15" height="15" viewBox="0 0 15 15" fill="none" xmlns="http://www.w3.org/2000/svg">
<g clip-path="url(#clip0_3_3)">
<path d="M6.09375 0.9375V2.8125L5.15625 3.28125L3.75 1.875L1.875 3.75L3.28125 5.15625L2.8125 6.09375H0.9375V8.90625H2.8125L3.28125 9.84375L1.875 11.25L3.75 13.125L5.15625 11.7188L6.09375 12.1875V14.0625H8.90625V12.1875L9.84375 11.7188L11.25 13.125L13.125 11.25L11.7188 9.84375L12.1875 8.90625H14.0625V6.09375H12.1875L11.7188 5.15625L13.125 3.75L11.25 1.875L9.84375 3.28125L8.90625 2.8125V0.9375H6.09375Z" stroke="white" stroke-width="0.9375" stroke-linecap="round" stroke-linejoin="round"/>
<path d="M7.5 9.375C8.53553 9.375 9.375 8.53553 9.375 7.5C9.375 6.46447 8.53553 5.625 7.5 5.625C6.46447 5.625 5.625 6.46447 5.625 7.5C5.625 8.53553 6.46447 9.375 7.5 9.375Z" stroke="white" stroke-width="0.9375" stroke-linecap="round" stroke-linejoin="round"/>
</g>
<defs>
<clipPath id="clip0_3_3">
<rect width="15" height="15" fill="white"/>
</clipPath>
</defs>
</svg>
